<svg xmlns="http://www.w3.org/2000/svg" width="460" height="460" viewBox="0 0 460 460" version="1.1"><path d="M 314 49.668 C 306.079 50.543, 300.028 52.302, 291.500 56.208 C 286.550 58.475, 282.275 60.593, 282 60.915 C 281.725 61.237, 279.371 63.211, 276.769 65.302 C 267.181 73.005, 258.382 86.859, 255.364 99 C 252.771 109.435, 252.929 126.679, 255.719 137.619 C 258.029 146.678, 258.300 147.281, 263.525 155.015 C 267.170 160.410, 267.221 160.620, 266.628 167.754 C 265.997 175.339, 262.059 185.022, 257.655 189.816 L 255.528 192.132 262.273 198.681 C 270.101 206.282, 269.585 206.391, 276.666 195.645 C 279.693 191.054, 281.779 186.534, 282.504 183 C 283.516 178.064, 283.883 177.516, 286.081 177.656 C 287.428 177.742, 291.082 178.979, 294.201 180.406 C 297.320 181.833, 300.351 183, 300.936 183 C 302.584 183, 302.269 184.326, 298.380 193.738 C 294.580 202.933, 289.496 211.374, 285.441 215.219 C 284.117 216.473, 283.027 218.239, 283.017 219.142 C 283.008 220.046, 285.757 223.337, 289.127 226.457 L 295.255 232.130 298.212 229.315 C 305.410 222.463, 315.057 205.792, 319.062 193.283 L 321.372 186.067 325.936 185.457 C 328.446 185.121, 332.692 184.239, 335.372 183.497 L 340.243 182.148 339.682 186.324 C 338.531 194.886, 333.731 209.739, 329.768 217 C 323.295 228.860, 317.460 237.540, 312.886 242.114 L 308.658 246.342 315.361 252.693 C 321.979 258.963, 322.094 259.022, 324.365 257.310 C 330.019 253.045, 345.183 230.545, 348.499 221.500 C 349.709 218.200, 352.040 211.900, 353.679 207.500 C 356.473 199.996, 358.992 189.248, 360.743 177.357 L 361.500 172.214 366.974 177.054 L 372.449 181.893 370.224 184.261 C 369.001 185.563, 368 186.955, 368 187.353 C 368 188.006, 375.232 195.498, 411.573 232.491 C 423.488 244.621, 425.532 245.747, 433.477 244.556 C 439.546 243.646, 443.082 239.114, 443.179 232.121 C 443.259 226.348, 440.669 222.472, 428.603 210.302 C 422.496 204.143, 410.570 192.091, 402.101 183.518 L 386.701 167.932 384.317 170.172 L 381.933 172.411 376.398 166.876 L 370.863 161.341 374.453 155.215 C 383.680 139.473, 386.630 128.587, 385.729 113.614 C 384.298 89.834, 369.539 67.161, 349 57.189 C 337.012 51.369, 323.973 48.567, 314 49.668 M 304 66.476 C 292.814 70.480, 286.384 74.663, 279.984 82.098 C 272.662 90.606, 270.744 94.333, 268.553 104.306 C 266.450 113.880, 266.427 121.227, 268.469 130.889 C 274.118 157.614, 301.625 175.858, 328.500 170.704 C 330.700 170.282, 336.030 168.495, 340.345 166.733 C 351.282 162.266, 360.060 153.746, 365.841 141.985 C 374.436 124.501, 374.149 109.702, 364.868 91.863 C 353.414 69.848, 326.241 58.514, 304 66.476 M 131.576 74.475 C 125.473 80.755, 113.749 98.398, 110.472 106.235 C 99.488 132.501, 98.500 137.350, 98.500 165 C 98.500 189.610, 99.197 194.252, 105.225 209.802 C 106.867 214.036, 109.175 219.975, 110.355 223 C 111.535 226.025, 114.750 231.827, 117.500 235.894 C 120.250 239.961, 123.467 244.861, 124.650 246.783 C 126.904 250.449, 134.782 259, 135.905 259 C 136.264 259, 139.470 256.062, 143.029 252.471 L 149.500 245.942 146.342 243.470 C 140.716 239.067, 127.591 217.711, 124.134 207.334 C 117.456 187.286, 115.391 174.282, 116.396 158.589 C 117.384 143.165, 123.159 121.790, 129.253 111 C 134.096 102.424, 144.155 88.023, 146.699 86.022 C 147.965 85.027, 149 83.814, 149 83.327 C 149 82.840, 146.116 79.584, 142.590 76.090 L 136.181 69.737 131.576 74.475 M 306.250 72.667 C 300.834 73.433, 302.588 74.701, 310.088 75.440 C 315.794 76.002, 319.074 77.106, 326.915 81.103 C 332.271 83.833, 338.471 87.739, 340.692 89.783 C 352.225 100.399, 360.787 117.750, 361.102 131.144 L 361.205 135.500 362.559 129.500 C 367.563 107.323, 357.624 86.373, 337.168 75.982 C 331.042 72.870, 329.791 72.610, 320.030 72.416 C 314.238 72.301, 308.038 72.414, 306.250 72.667 M 158.740 101.250 C 154.443 105.809, 147.526 116.685, 143.409 125.353 C 139.656 133.257, 136.567 146.593, 135.499 159.500 C 134.794 168.019, 136.747 184.789, 139.626 194.945 C 142.415 204.784, 152.705 222.436, 159.459 228.968 L 163.045 232.436 169.773 225.666 C 176.372 219.023, 176.462 218.863, 174.499 217.197 C 167.824 211.535, 158.385 193.783, 155.551 181.563 C 153.749 173.792, 153.515 157.441, 155.097 149.799 C 157.517 138.109, 170.586 113.446, 175.294 111.687 C 176.522 111.228, 164.331 98, 162.680 98 C 162.197 98, 160.424 99.463, 158.740 101.250 M 186.824 126.760 C 174.897 139.676, 170.090 161.366, 175.020 180.026 C 177.458 189.257, 181.359 197.032, 186.098 202.105 L 189.130 205.351 195.772 198.710 L 202.413 192.069 200.269 189.784 C 199.090 188.528, 196.640 184.350, 194.824 180.500 C 191.896 174.293, 191.522 172.537, 191.522 165 C 191.522 157.463, 191.896 155.707, 194.824 149.500 C 196.640 145.650, 199.072 141.491, 200.229 140.258 L 202.333 138.017 195.961 131.258 C 192.456 127.541, 189.536 124.392, 189.471 124.260 C 189.407 124.129, 188.216 125.254, 186.824 126.760 M 220.871 147.949 C 208.975 154.421, 206.610 171.042, 216.480 178.806 L 219 180.788 219 239.894 L 219 299 152.114 299 L 85.228 299 79.864 301.771 C 75.727 303.909, 73.985 305.558, 72.250 308.983 C 70.045 313.336, 70.001 314.098, 70.048 347.462 C 70.102 385.628, 70.095 385.584, 77.343 391.411 L 81.185 394.500 226.343 394.787 C 306.179 394.944, 372.936 394.817, 374.691 394.502 C 376.479 394.183, 379.997 392.017, 382.691 389.579 L 387.500 385.226 387.786 348.539 C 388.066 312.532, 388.032 311.788, 385.929 308.385 C 384.751 306.479, 381.472 303.591, 378.643 301.969 L 373.500 299.019 306.250 299.009 L 239 299 239 240.140 L 239 181.280 242.344 177.735 C 250.355 169.240, 249.025 155.610, 239.572 149.321 C 234.157 145.718, 226.063 145.125, 220.871 147.949 M 107 331.173 C 99.618 335.638, 97.797 339.271, 98.215 348.699 C 98.597 357.326, 100.278 360.069, 107.516 363.874 C 114.167 367.370, 119.293 367.216, 125.632 363.329 C 131.746 359.581, 134.961 354.213, 134.984 347.718 C 135.006 341.076, 133.080 337.126, 127.647 332.674 C 123.933 329.630, 121.920 328.752, 117.743 328.350 C 113.098 327.904, 111.872 328.226, 107 331.173 M 206.885 338.118 C 203.582 339.329, 200.481 345.797, 201.417 349.524 C 202.854 355.252, 208.988 358.477, 214.455 356.379 C 216.612 355.551, 219.001 350.775, 218.996 347.300 C 218.992 343.893, 215.570 338, 213.596 338 C 212.808 338, 211.564 337.811, 210.832 337.579 C 210.099 337.348, 208.323 337.590, 206.885 338.118 M 255.284 337.775 C 251.870 338.322, 248 343.571, 248 347.654 C 248 352.421, 252.514 357.009, 257.173 356.978 C 262.440 356.943, 267 352.173, 267 346.701 C 267 341.690, 260.719 336.905, 255.284 337.775 M 300.242 338.494 C 291.432 342.323, 294.599 357, 304.236 357 C 307.891 357, 312.202 353.401, 313.432 349.323 C 314.529 345.685, 311.522 340.116, 307.568 338.464 C 303.453 336.744, 304.276 336.741, 300.242 338.494 M 346.911 339.281 C 341.024 343.248, 340.502 349.780, 345.686 354.585 C 353.544 361.868, 365.544 350.933, 359.369 342.117 C 358.067 340.257, 352.536 337, 350.680 337 C 350.469 337, 348.773 338.026, 346.911 339.281" stroke="none" fill="#c3cbf3" fill-rule="evenodd"/><path d="M 0 230.002 L 0 460.004 230.250 459.752 L 460.500 459.500 460.752 229.750 L 461.004 -0 230.502 -0 L 0 0 0 230.002 M 0.491 230.500 C 0.492 357, 0.608 408.601, 0.750 345.170 C 0.892 281.738, 0.892 178.238, 0.750 115.170 C 0.608 52.101, 0.491 104, 0.491 230.500 M 314 49.668 C 306.079 50.543, 300.028 52.302, 291.500 56.208 C 286.550 58.475, 282.275 60.593, 282 60.915 C 281.725 61.237, 279.371 63.211, 276.769 65.302 C 267.181 73.005, 258.382 86.859, 255.364 99 C 252.771 109.435, 252.929 126.679, 255.719 137.619 C 258.029 146.678, 258.300 147.281, 263.525 155.015 C 267.170 160.410, 267.221 160.620, 266.628 167.754 C 265.997 175.339, 262.059 185.022, 257.655 189.816 L 255.528 192.132 262.273 198.681 C 270.101 206.282, 269.585 206.391, 276.666 195.645 C 279.693 191.054, 281.779 186.534, 282.504 183 C 283.516 178.064, 283.883 177.516, 286.081 177.656 C 287.428 177.742, 291.082 178.979, 294.201 180.406 C 297.320 181.833, 300.351 183, 300.936 183 C 302.584 183, 302.269 184.326, 298.380 193.738 C 294.580 202.933, 289.496 211.374, 285.441 215.219 C 284.117 216.473, 283.027 218.239, 283.017 219.142 C 283.008 220.046, 285.757 223.337, 289.127 226.457 L 295.255 232.130 298.212 229.315 C 305.410 222.463, 315.057 205.792, 319.062 193.283 L 321.372 186.067 325.936 185.457 C 328.446 185.121, 332.692 184.239, 335.372 183.497 L 340.243 182.148 339.682 186.324 C 338.531 194.886, 333.731 209.739, 329.768 217 C 323.295 228.860, 317.460 237.540, 312.886 242.114 L 308.658 246.342 315.361 252.693 C 321.979 258.963, 322.094 259.022, 324.365 257.310 C 330.019 253.045, 345.183 230.545, 348.499 221.500 C 349.709 218.200, 352.040 211.900, 353.679 207.500 C 356.473 199.996, 358.992 189.248, 360.743 177.357 L 361.500 172.214 366.974 177.054 L 372.449 181.893 370.224 184.261 C 369.001 185.563, 368 186.955, 368 187.353 C 368 188.006, 375.232 195.498, 411.573 232.491 C 423.488 244.621, 425.532 245.747, 433.477 244.556 C 439.546 243.646, 443.082 239.114, 443.179 232.121 C 443.259 226.348, 440.669 222.472, 428.603 210.302 C 422.496 204.143, 410.570 192.091, 402.101 183.518 L 386.701 167.932 384.317 170.172 L 381.933 172.411 376.398 166.876 L 370.863 161.341 374.453 155.215 C 383.680 139.473, 386.630 128.587, 385.729 113.614 C 384.298 89.834, 369.539 67.161, 349 57.189 C 337.012 51.369, 323.973 48.567, 314 49.668 M 304 66.476 C 292.814 70.480, 286.384 74.663, 279.984 82.098 C 272.662 90.606, 270.744 94.333, 268.553 104.306 C 266.450 113.880, 266.427 121.227, 268.469 130.889 C 274.118 157.614, 301.625 175.858, 328.500 170.704 C 330.700 170.282, 336.030 168.495, 340.345 166.733 C 351.282 162.266, 360.060 153.746, 365.841 141.985 C 374.436 124.501, 374.149 109.702, 364.868 91.863 C 353.414 69.848, 326.241 58.514, 304 66.476 M 131.576 74.475 C 125.473 80.755, 113.749 98.398, 110.472 106.235 C 99.488 132.501, 98.500 137.350, 98.500 165 C 98.500 189.610, 99.197 194.252, 105.225 209.802 C 106.867 214.036, 109.175 219.975, 110.355 223 C 111.535 226.025, 114.750 231.827, 117.500 235.894 C 120.250 239.961, 123.467 244.861, 124.650 246.783 C 126.904 250.449, 134.782 259, 135.905 259 C 136.264 259, 139.470 256.062, 143.029 252.471 L 149.500 245.942 146.342 243.470 C 140.716 239.067, 127.591 217.711, 124.134 207.334 C 117.456 187.286, 115.391 174.282, 116.396 158.589 C 117.384 143.165, 123.159 121.790, 129.253 111 C 134.096 102.424, 144.155 88.023, 146.699 86.022 C 147.965 85.027, 149 83.814, 149 83.327 C 149 82.840, 146.116 79.584, 142.590 76.090 L 136.181 69.737 131.576 74.475 M 306.250 72.667 C 300.834 73.433, 302.588 74.701, 310.088 75.440 C 315.794 76.002, 319.074 77.106, 326.915 81.103 C 332.271 83.833, 338.471 87.739, 340.692 89.783 C 352.225 100.399, 360.787 117.750, 361.102 131.144 L 361.205 135.500 362.559 129.500 C 367.563 107.323, 357.624 86.373, 337.168 75.982 C 331.042 72.870, 329.791 72.610, 320.030 72.416 C 314.238 72.301, 308.038 72.414, 306.250 72.667 M 158.740 101.250 C 154.443 105.809, 147.526 116.685, 143.409 125.353 C 139.656 133.257, 136.567 146.593, 135.499 159.500 C 134.794 168.019, 136.747 184.789, 139.626 194.945 C 142.415 204.784, 152.705 222.436, 159.459 228.968 L 163.045 232.436 169.773 225.666 C 176.372 219.023, 176.462 218.863, 174.499 217.197 C 167.824 211.535, 158.385 193.783, 155.551 181.563 C 153.749 173.792, 153.515 157.441, 155.097 149.799 C 157.517 138.109, 170.586 113.446, 175.294 111.687 C 176.522 111.228, 164.331 98, 162.680 98 C 162.197 98, 160.424 99.463, 158.740 101.250 M 186.824 126.760 C 174.897 139.676, 170.090 161.366, 175.020 180.026 C 177.458 189.257, 181.359 197.032, 186.098 202.105 L 189.130 205.351 195.772 198.710 L 202.413 192.069 200.269 189.784 C 199.090 188.528, 196.640 184.350, 194.824 180.500 C 191.896 174.293, 191.522 172.537, 191.522 165 C 191.522 157.463, 191.896 155.707, 194.824 149.500 C 196.640 145.650, 199.072 141.491, 200.229 140.258 L 202.333 138.017 195.961 131.258 C 192.456 127.541, 189.536 124.392, 189.471 124.260 C 189.407 124.129, 188.216 125.254, 186.824 126.760 M 220.871 147.949 C 208.975 154.421, 206.610 171.042, 216.480 178.806 L 219 180.788 219 239.894 L 219 299 152.114 299 L 85.228 299 79.864 301.771 C 75.727 303.909, 73.985 305.558, 72.250 308.983 C 70.045 313.336, 70.001 314.098, 70.048 347.462 C 70.102 385.628, 70.095 385.584, 77.343 391.411 L 81.185 394.500 226.343 394.787 C 306.179 394.944, 372.936 394.817, 374.691 394.502 C 376.479 394.183, 379.997 392.017, 382.691 389.579 L 387.500 385.226 387.786 348.539 C 388.066 312.532, 388.032 311.788, 385.929 308.385 C 384.751 306.479, 381.472 303.591, 378.643 301.969 L 373.500 299.019 306.250 299.009 L 239 299 239 240.140 L 239 181.280 242.344 177.735 C 250.355 169.240, 249.025 155.610, 239.572 149.321 C 234.157 145.718, 226.063 145.125, 220.871 147.949 M 107 331.173 C 99.618 335.638, 97.797 339.271, 98.215 348.699 C 98.597 357.326, 100.278 360.069, 107.516 363.874 C 114.167 367.370, 119.293 367.216, 125.632 363.329 C 131.746 359.581, 134.961 354.213, 134.984 347.718 C 135.006 341.076, 133.080 337.126, 127.647 332.674 C 123.933 329.630, 121.920 328.752, 117.743 328.350 C 113.098 327.904, 111.872 328.226, 107 331.173 M 206.885 338.118 C 203.582 339.329, 200.481 345.797, 201.417 349.524 C 202.854 355.252, 208.988 358.477, 214.455 356.379 C 216.612 355.551, 219.001 350.775, 218.996 347.300 C 218.992 343.893, 215.570 338, 213.596 338 C 212.808 338, 211.564 337.811, 210.832 337.579 C 210.099 337.348, 208.323 337.590, 206.885 338.118 M 255.284 337.775 C 251.870 338.322, 248 343.571, 248 347.654 C 248 352.421, 252.514 357.009, 257.173 356.978 C 262.440 356.943, 267 352.173, 267 346.701 C 267 341.690, 260.719 336.905, 255.284 337.775 M 300.242 338.494 C 291.432 342.323, 294.599 357, 304.236 357 C 307.891 357, 312.202 353.401, 313.432 349.323 C 314.529 345.685, 311.522 340.116, 307.568 338.464 C 303.453 336.744, 304.276 336.741, 300.242 338.494 M 346.911 339.281 C 341.024 343.248, 340.502 349.780, 345.686 354.585 C 353.544 361.868, 365.544 350.933, 359.369 342.117 C 358.067 340.257, 352.536 337, 350.680 337 C 350.469 337, 348.773 338.026, 346.911 339.281" stroke="none" fill="#3c4fd7" fill-rule="evenodd"/></svg>